<svg width="16" height="16" viewBox="0 0 16 16" fill="none" xmlns="http://www.w3.org/2000/svg">
  <path fill-rule="evenodd" clip-rule="evenodd" d="M2.66675 7.99967C2.66675 7.63148 2.96522 7.33301 3.33341 7.33301H4.66675C5.03494 7.33301 5.33341 7.63148 5.33341 7.99967V8.66634C5.33341 9.03453 5.03494 9.33301 4.66675 9.33301H3.33341C2.96522 9.33301 2.66675 9.03453 2.66675 8.66634V7.99967Z" fill="#DCDCDC"/>
  <path fill-rule="evenodd" clip-rule="evenodd" d="M6.66675 7.99967C6.66675 7.63148 6.96522 7.33301 7.33341 7.33301H8.66675C9.03494 7.33301 9.33341 7.63148 9.33341 7.99967V8.66634C9.33341 9.03453 9.03494 9.33301 8.66675 9.33301H7.33341C6.96522 9.33301 6.66675 9.03453 6.66675 8.66634V7.99967Z" fill="#DCDCDC"/>
  <path fill-rule="evenodd" clip-rule="evenodd" d="M2.66675 11.3337C2.66675 10.9655 2.96522 10.667 3.33341 10.667H4.66675C5.03494 10.667 5.33341 10.9655 5.33341 11.3337V12.0003C5.33341 12.3685 5.03494 12.667 4.66675 12.667H3.33341C2.96522 12.667 2.66675 12.3685 2.66675 12.0003V11.3337Z" fill="#DCDCDC"/>
  <path fill-rule="evenodd" clip-rule="evenodd" d="M6.66675 11.3337C6.66675 10.9655 6.96522 10.667 7.33341 10.667H8.66675C9.03494 10.667 9.33341 10.9655 9.33341 11.3337V12.0003C9.33341 12.3685 9.03494 12.667 8.66675 12.667H7.33341C6.96522 12.667 6.66675 12.3685 6.66675 12.0003V11.3337Z" fill="#DCDCDC"/>
  <path fill-rule="evenodd" clip-rule="evenodd" d="M10.6667 7.99967C10.6667 7.63148 10.9652 7.33301 11.3334 7.33301H12.6667C13.0349 7.33301 13.3334 7.63148 13.3334 7.99967V8.66634C13.3334 9.03453 13.0349 9.33301 12.6667 9.33301H11.3334C10.9652 9.33301 10.6667 9.03453 10.6667 8.66634V7.99967Z" fill="#DCDCDC"/>
  <path d="M4.66659 8H3.33325V8.66667H4.66659V8Z" fill="#DCDCDC"/>
  <path d="M8.66659 8H7.33325V8.66667H8.66659V8Z" fill="#DCDCDC"/>
  <path d="M4.66659 11.333H3.33325V11.9997H4.66659V11.333Z" fill="#DCDCDC"/>
  <path d="M8.66659 11.333H7.33325V11.9997H8.66659V11.333Z" fill="#DCDCDC"/>
  <path d="M12.6666 8H11.3333V8.66667H12.6666V8Z" fill="#DCDCDC"/>
  <path fill-rule="evenodd" clip-rule="evenodd" d="M0 2.66667C0 2.29848 0.298477 2 0.666667 2H15.3333C15.7015 2 16 2.29848 16 2.66667V14.6667C16 15.0349 15.7015 15.3333 15.3333 15.3333H0.666667C0.298477 15.3333 0 15.0349 0 14.6667V2.66667ZM1.33333 3.33333V14H14.6667V3.33333H1.33333Z" fill="#DCDCDC"/>
  <path fill-rule="evenodd" clip-rule="evenodd" d="M11.3334 0C11.7016 0 12.0001 0.298477 12.0001 0.666667V2.66667C12.0001 3.03486 11.7016 3.33333 11.3334 3.33333C10.9652 3.33333 10.6667 3.03486 10.6667 2.66667V0.666667C10.6667 0.298477 10.9652 0 11.3334 0Z" fill="#DCDCDC"/>
  <path fill-rule="evenodd" clip-rule="evenodd" d="M4.66667 0C5.03486 0 5.33333 0.298477 5.33333 0.666667V2.66667C5.33333 3.03486 5.03486 3.33333 4.66667 3.33333C4.29848 3.33333 4 3.03486 4 2.66667V0.666667C4 0.298477 4.29848 0 4.66667 0Z" fill="#DCDCDC"/>
  <path fill-rule="evenodd" clip-rule="evenodd" d="M0 5.33366C0 4.96547 0.298477 4.66699 0.666667 4.66699H15.3333C15.7015 4.66699 16 4.96547 16 5.33366C16 5.70185 15.7015 6.00033 15.3333 6.00033H0.666667C0.298477 6.00033 0 5.70185 0 5.33366Z" fill="#DCDCDC"/>
</svg>
