<svg width="16" height="16" viewBox="0 0 16 16" fill="none" xmlns="http://www.w3.org/2000/svg">
  <path d="M15.8047 4.49067L11.5087 0.195333C11.3837 0.0703004 11.2141 3.77583e-05 11.0373 0L4.96267 0C4.78587 3.77583e-05 4.61633 0.0703004 4.49133 0.195333L0.195333 4.49067C0.0703004 4.61566 3.77583e-05 4.7852 0 4.962L0 11.038C3.77583e-05 11.2148 0.0703004 11.3843 0.195333 11.5093L4.49133 15.8047C4.61633 15.9297 4.78587 16 4.96267 16H11.0373C11.2141 16 11.3837 15.9297 11.5087 15.8047L15.8047 11.5093C15.9297 11.3843 16 11.2148 16 11.038V4.962C16 4.7852 15.9297 4.61566 15.8047 4.49067ZM9.09667 3.33333L8.66667 9.33333H7.33333L6.928 3.33333H9.09667ZM8 13.3333C7.73629 13.3333 7.47851 13.2551 7.25924 13.1086C7.03997 12.9621 6.86908 12.7539 6.76816 12.5102C6.66724 12.2666 6.64084 11.9985 6.69229 11.7399C6.74373 11.4812 6.87072 11.2437 7.05719 11.0572C7.24366 10.8707 7.48124 10.7437 7.73988 10.6923C7.99852 10.6408 8.26661 10.6672 8.51024 10.7682C8.75388 10.8691 8.96212 11.04 9.10863 11.2592C9.25513 11.4785 9.33333 11.7363 9.33333 12C9.33333 12.3536 9.19286 12.6928 8.94281 12.9428C8.69276 13.1929 8.35362 13.3333 8 13.3333Z" fill="#DC3545"/>
</svg>
